<svg width="137" height="138" viewBox="0 0 137 138" fill="none" xmlns="http://www.w3.org/2000/svg">
<path fill-rule="evenodd" clip-rule="evenodd" d="M81.0584 16.5312C74.0566 16.5312 67.3413 19.333 62.3899 24.3203C57.439 29.3076 54.6574 36.0718 54.6574 43.1249V57.9312H40.5292C39.8199 57.9312 39.2449 58.5102 39.2449 59.2249V78.7749C39.2449 79.4897 39.8199 80.0687 40.5292 80.0687H54.6574V120.175C54.6574 120.89 55.2324 121.469 55.9417 121.469H75.3501C76.0596 121.469 76.6345 120.89 76.6345 120.175V80.0687H90.8876C91.4773 80.0687 91.991 79.6645 92.1337 79.0889L96.9858 59.5389C97.1884 58.7224 96.5754 57.9312 95.7397 57.9312H76.6345V43.1249C76.6345 41.9431 77.1008 40.8096 77.9302 39.9739C78.7597 39.1382 79.8853 38.6687 81.0584 38.6687H95.9001C96.6096 38.6687 97.1844 38.0894 97.1844 37.3749V17.8249C97.1844 17.1104 96.6096 16.5312 95.9001 16.5312H81.0584Z" fill="#333333"/>
</svg>
